<svg xmlns="http://www.w3.org/2000/svg" xmlns:xlink="http://www.w3.org/1999/xlink" id="Layer_1" width="32" height="32" x="0" y="0" enable-background="new 0 0 32 32" version="1.1" viewBox="0 0 32 32" xml:space="preserve"><g><g><path fill="#FFF" d="M24,0H8C6.9,0,6,1,6,2v28c0,1,0.9,2,2,2h16c1.1,0,2-1,2-2V2C25.8,0.9,25.1,0,24,0z M16,31 c-0.8,0-1.5-0.7-1.5-1.5c0-0.8,0.7-1.5,1.5-1.5s1.5,0.7,1.5,1.5C17.5,30.3,16.8,31,16,31z M24,25c0,1-0.9,2-2,2H10c-1.1,0-2-1-2-2 V4c0-1,0.9-2,2-2h12c1.1,0,2,1,2,2V25z"/></g></g></svg>