<svg xmlns="http://www.w3.org/2000/svg" xmlns:xlink="http://www.w3.org/1999/xlink" id="Layer_1" width="24" height="24" x="0" y="0" enable-background="new 0 0 24 24" version="1.1" viewBox="0 0 24 24" xml:space="preserve"><path fill="#454546" d="M9.27,5.273c-0.275,0-0.574-0.212-0.665-0.472L7.79,2.653C7.699,2.394,7.4,2.181,7.125,2.181H0.5	c-0.275,0-0.5,0.225-0.5,0.5v1.992c0,0.275,0,0.725,0,1v0.124c0,0.275,0,0.725,0,1v11.688c0,0.275,0.225,0.5,0.5,0.5h22.753	c0.275,0,0.5-0.225,0.5-0.5V5.673c0-0.275-0.225-0.5-0.5-0.5L9.27,5.273z"/></svg>